<svg xmlns="http://www.w3.org/2000/svg" width="24" height="24" viewBox="0 0 24 24">
  <g fill="none" fill-rule="evenodd" stroke="#FFF" stroke-linecap="round" stroke-linejoin="round">
    <path stroke-width="1.25" d="M4.69241366,12.2876271 C3.20312728,11.9553189 1.98134195,10.9137553 1.4000001,9.53587898 C1.95926774,9.77184042 2.5739421,9.90229039 3.21908468,9.90229039 C5.80554777,9.90229039 7.90229039,7.80554777 7.90229039,5.21908468 C7.90229039,4.5739421 7.77184042,3.95926774 7.53587898,3.4000001 C9.21879031,4.1100397 10.4000001,5.77547388 10.4000001,7.71679439 L10.4000001,7.71679439 C10.4000001,8.26778806 10.3048464,8.79655739 10.1300751,9.28756625"/>
    <path stroke-width="1.5" d="M8,17.25 C6.20507456,17.25 4.75,15.7949254 4.75,14 C4.75,12.2050746 6.20507456,10.75 8,10.75 C8.55968831,10.75 9.08633297,10.8914767 9.54612271,11.1406188 C9.83958977,9.22070188 11.4980445,7.75 13.5,7.75 C15.709139,7.75 17.5,9.540861 17.5,11.75 C17.5,12.0580186 17.4651847,12.3579056 17.3992747,12.6459406 C17.7887981,12.3953637 18.2524233,12.25 18.75,12.25 C20.1307119,12.25 21.25,13.3692881 21.25,14.75 C21.25,16.1307119 20.1307119,17.25 18.75,17.25 L8,17.25 Z"/>
  </g>
</svg>
