<svg xmlns="http://www.w3.org/2000/svg" width="24" height="24" viewBox="0 0 24 24">
  <g fill="none" fill-rule="evenodd" stroke="#FFF" stroke-linecap="round" stroke-linejoin="round">
    <path stroke-width="1.5" d="M8,16.25 C6.20507456,16.25 4.75,14.7949254 4.75,13 C4.75,11.2050746 6.20507456,9.75 8,9.75 C8.55968831,9.75 9.08633297,9.89147669 9.54612271,10.1406188 C9.83958977,8.22070188 11.4980445,6.75 13.5,6.75 C15.709139,6.75 17.5,8.540861 17.5,10.75 C17.5,11.0580186 17.4651847,11.3579056 17.3992747,11.6459406 C17.7887981,11.3953637 18.2524233,11.25 18.75,11.25 C20.1307119,11.25 21.25,12.3692881 21.25,13.75 C21.25,15.1307119 20.1307119,16.25 18.75,16.25 L8,16.25 Z"/>
    <path stroke-width="1.25" d="M4.69241366,11.2876271 C3.20312728,10.9553189 1.98134195,9.91375535 1.4000001,8.53587898 C1.95926774,8.77184042 2.5739421,8.90229039 3.21908468,8.90229039 C5.80554777,8.90229039 7.90229039,6.80554777 7.90229039,4.21908468 C7.90229039,3.5739421 7.77184042,2.95926774 7.53587898,2.4000001 C9.21879031,3.1100397 10.4000001,4.77547388 10.4000001,6.71679439 L10.4000001,6.71679439 C10.4000001,7.26778806 10.3048464,7.79655739 10.1300751,8.28756625"/>
    <path stroke-width="1.5" d="M9.80000019 19.7536011L8.75 22.2530518M14.8000002 18.7536011L13.75 21.2530518"/>
  </g>
</svg>
