<svg xmlns="http://www.w3.org/2000/svg" width="24" height="24" viewBox="0 0 24 24">
  <g fill="none" fill-rule="evenodd" stroke="#FFF" stroke-width="1.25">
    <path d="M17.5 8.25C18.4204746 8.25 19.1666667 7.49448052 19.1666667 6.5625 19.1666667 5.63051948 17.5 3.75 17.5 3.75 17.5 3.75 15.8333333 5.63051948 15.8333333 6.5625 15.8333333 7.49448052 16.5795254 8.25 17.5 8.25zM13 20.25C15.0250441 20.25 16.6666667 18.4871212 16.6666667 16.3125 16.6666667 14.1378788 13 9.75 13 9.75 13 9.75 9.33333333 14.1378788 9.33333333 16.3125 9.33333333 18.4871212 10.9749559 20.25 13 20.25zM6 11.375C7.28866442 11.375 8.33333333 10.2417208 8.33333333 8.84375 8.33333333 7.44577923 6 4.625 6 4.625 6 4.625 3.66666667 7.44577923 3.66666667 8.84375 3.66666667 10.2417208 4.71133558 11.375 6 11.375z"/>
  </g>
</svg>
