<svg xmlns="http://www.w3.org/2000/svg" width="24" height="24" viewBox="0 0 24 24">
  <g fill="none" fill-rule="evenodd" stroke="#FFF">
    <path stroke-linecap="round" stroke-linejoin="round" stroke-width="1.1" d="M20.6949156,15.7020226 L9.69491565,15.7020226" transform="rotate(15 15.195 15.702)"/>
    <polyline stroke-linecap="round" stroke-linejoin="round" stroke-width="1.1" points="11.365 13.382 11.926 14.826 10.718 15.796"/>
    <polyline stroke-linecap="round" stroke-linejoin="round" stroke-width="1.1" points="19.025 18.022 18.464 16.578 19.672 15.608"/>
    <path stroke-linecap="round" stroke-linejoin="round" stroke-width="1.1" d="M20.6949156,15.7020226 L9.69491565,15.7020226" transform="rotate(75 15.195 15.702)"/>
    <polyline stroke-linecap="round" stroke-linejoin="round" stroke-width="1.1" points="15.289 11.225 14.319 12.433 12.875 11.872"/>
    <polyline stroke-linecap="round" stroke-linejoin="round" stroke-width="1.1" points="15.1 20.179 16.071 18.971 17.515 19.532"/>
    <path stroke-linecap="round" stroke-linejoin="round" stroke-width="1.1" d="M20.6949156,15.7020226 L9.69491565,15.7020226" transform="rotate(-45 15.195 15.702)"/>
    <polyline stroke-linecap="round" stroke-linejoin="round" stroke-width="1.1" points="11.27 17.859 12.802 18.095 13.038 19.626"/>
    <polyline stroke-linecap="round" stroke-linejoin="round" stroke-width="1.1" points="19.119 13.545 17.588 13.309 17.352 11.778"/>
    <path stroke-width="1.25" d="M7,10.75 C8.47275933,10.75 9.66666667,9.49080086 9.66666667,7.9375 C9.66666667,6.38419914 7,3.25 7,3.25 C7,3.25 4.33333333,6.38419914 4.33333333,7.9375 C4.33333333,9.49080086 5.52724067,10.75 7,10.75 Z"/>
  </g>
</svg>
