<svg xmlns="http://www.w3.org/2000/svg" width="24" height="24" viewBox="0 0 24 24">
  <g fill="none" fill-rule="evenodd" stroke="#FFF" stroke-linecap="round" stroke-linejoin="round" stroke-width="1.5">
    <path d="M3 13.75L10 13.75M3 16.75L14 16.75M3 19.75L18 19.75M15.6718445 14.6020795C16.19339 13.8674487 16.5 12.9695306 16.5 12 16.5 9.51471863 14.4852814 7.5 12 7.5 9.6794914 7.5 7.76921787 9.2564251 7.52611778 11.5123369"/>
    <path d="M15.4190543,2.19930642 L15.4190543,5.26957619" transform="rotate(22.5 15.42 3.734)"/>
    <path d="M20.2607277,7.04097986 L20.2607277,10.1112496" transform="rotate(67.5 20.26 8.576)"/>
    <path d="M20.2607277,13.8881401 L20.2607277,16.9584099" transform="rotate(112.5 20.26 15.423)"/>
    <path d="M3.73354939,7.04235871 L3.73354939,10.1126285" transform="rotate(112.5 3.734 8.577)"/>
    <path d="M8.571894,2.19930642 L8.571894,5.26957619" transform="rotate(-22.5 8.572 3.734)"/>
  </g>
</svg>
