<svg xmlns="http://www.w3.org/2000/svg" width="24" height="24" viewBox="0 0 24 24">
  <g fill="none" fill-rule="evenodd" stroke="#FFF" stroke-linecap="round" stroke-linejoin="round" stroke-width="1.5">
    <path d="M6,18.25 C4.20507456,18.25 2.75,16.7949254 2.75,15 C2.75,13.2050746 4.20507456,11.75 6,11.75 C6.55968831,11.75 7.08633297,11.8914767 7.54612271,12.1406188 C7.83958977,10.2207019 9.49804447,8.75 11.5,8.75 C13.709139,8.75 15.5,10.540861 15.5,12.75 C15.5,13.0580186 15.4651847,13.3579056 15.3992747,13.6459406 C15.7887981,13.3953637 16.2524233,13.25 16.75,13.25 C18.1307119,13.25 19.25,14.3692881 19.25,15.75 C19.25,17.1307119 18.1307119,18.25 16.75,18.25 L6,18.25 Z"/>
    <path d="M17.4646105,12.9499998 C18.5320826,12.4102326 19.2639617,11.3032399 19.2639617,10.0253077 C19.2639617,8.21640519 17.7975565,6.75 15.9886541,6.75 C14.6579301,6.75 13.5125604,7.54359635 13,8.68333418"/>
    <path d="M14.8712868,2.84874961 L14.8712868,4.34874961" transform="rotate(-10 14.871 3.599)"/>
    <path d="M19.7282468,3.92551171 L19.7282468,5.42551171" transform="rotate(35 19.728 4.676)"/>
    <path d="M10.6755117,5.52175316 L10.6755117,7.02175316" transform="rotate(-55 10.676 6.272)"/>
    <path d="M21.3244883,12.9782468 L21.3244883,14.4782468" transform="rotate(-55 21.324 13.728)"/>
    <path d="M22.4012504,8.12128685 L22.4012504,9.62128685" transform="rotate(80 22.401 8.871)"/>
  </g>
</svg>
