<svg xmlns="http://www.w3.org/2000/svg" width="24" height="24" viewBox="0 0 24 24">
  <g fill="none" fill-rule="evenodd" stroke="#FFF" stroke-linecap="round" stroke-linejoin="round" stroke-width="1.5">
    <path d="M6,16.25 C4.20507456,16.25 2.75,14.7949254 2.75,13 C2.75,11.2050746 4.20507456,9.75 6,9.75 C6.55968831,9.75 7.08633297,9.89147669 7.54612271,10.1406188 C7.83958977,8.22070188 9.49804447,6.75 11.5,6.75 C13.709139,6.75 15.5,8.540861 15.5,10.75 C15.5,11.0580186 15.4651847,11.3579056 15.3992747,11.6459406 C15.7887981,11.3953637 16.2524233,11.25 16.75,11.25 C18.1307119,11.25 19.25,12.3692881 19.25,13.75 C19.25,15.1307119 18.1307119,16.25 16.75,16.25 L6,16.25 Z"/>
    <path d="M17.4646105,10.9499998 C18.5320826,10.4102326 19.2639617,9.3032399 19.2639617,8.02530767 C19.2639617,6.21640519 17.7975565,4.75 15.9886541,4.75 C14.6579301,4.75 13.5125604,5.54359635 13,6.68333418"/>
    <path d="M14.8712868,0.848749605 L14.8712868,2.34874961" transform="rotate(-10 14.871 1.599)"/>
    <path d="M19.7282468,1.92551171 L19.7282468,3.42551171" transform="rotate(35 19.728 2.676)"/>
    <path d="M10.6755117,3.52175316 L10.6755117,5.02175316" transform="rotate(-55 10.676 4.272)"/>
    <path d="M21.3244883,10.9782468 L21.3244883,12.4782468" transform="rotate(-55 21.324 11.728)"/>
    <path d="M22.4012504,6.12128685 L22.4012504,7.62128685" transform="rotate(80 22.401 6.871)"/>
    <path d="M7.80000019 19.7536011L6.75 22.2530518M12.8000002 18.7536011L11.75 21.2530518"/>
  </g>
</svg>
