<svg xmlns="http://www.w3.org/2000/svg" width="24" height="24" viewBox="0 0 24 24">
  <g fill="none" fill-rule="evenodd" stroke="#FFF" stroke-linecap="round" stroke-linejoin="round" stroke-width="1.5">
    <path d="M6,18.25 C4.20507456,18.25 2.75,16.7949254 2.75,15 C2.75,13.2050746 4.20507456,11.75 6,11.75 C6.55968831,11.75 7.08633297,11.8914767 7.54612271,12.1406188 C7.83958977,10.2207019 9.49804447,8.75 11.5,8.75 C13.709139,8.75 15.5,10.540861 15.5,12.75 C15.5,13.0580186 15.4651847,13.3579056 15.3992747,13.6459406 C15.7887981,13.3953637 16.2524233,13.25 16.75,13.25 C18.1307119,13.25 19.25,14.3692881 19.25,15.75 C19.25,17.1307119 18.1307119,18.25 16.75,18.25 L6,18.25 Z"/>
    <path d="M7.13915411,11.0434165 C6.89092227,10.584267 6.75,10.0585906 6.75,9.5 C6.75,7.70507456 8.20507456,6.25 10,6.25 C10.403629,6.25 10.7900725,6.32357954 11.1466492,6.45805715 C11.5981328,4.8939146 13.0404786,3.75 14.75,3.75 C16.8210678,3.75 18.5,5.42893219 18.5,7.5 C18.5,7.75720581 18.4741056,8.00836365 18.4247815,8.25100881 C18.4497726,8.2503377 18.4748469,8.25 18.5,8.25 C20.0187831,8.25 21.25,9.48121694 21.25,11 C21.25,12.4345106 20.151625,13.6124821 18.75,13.7387892"/>
  </g>
</svg>
