<svg xmlns="http://www.w3.org/2000/svg" width="24" height="24" viewBox="0 0 24 24">
  <g fill="none" fill-rule="evenodd" stroke="#FFF" stroke-linecap="round" stroke-linejoin="round" stroke-width="1.5">
    <path d="M7,13.25 C5.20507456,13.25 3.75,11.7949254 3.75,10 C3.75,8.20507456 5.20507456,6.75 7,6.75 C7.55968831,6.75 8.08633297,6.89147669 8.54612271,7.14061881 C8.83958977,5.22070188 10.4980445,3.75 12.5,3.75 C14.709139,3.75 16.5,5.540861 16.5,7.75 C16.5,8.05801859 16.4651847,8.35790563 16.3992747,8.64594065 C16.7887981,8.39536368 17.2524233,8.25 17.75,8.25 C19.1307119,8.25 20.25,9.36928813 20.25,10.75 C20.25,12.1307119 19.1307119,13.25 17.75,13.25 L7,13.25 Z"/>
    <polygon fill="#FFF" points="8.5 16.75 9.25 17.5 8.5 18.25 7.75 17.5"/>
    <polygon fill="#FFF" points="11.5 19.75 12.25 20.5 11.5 21.25 10.75 20.5"/>
    <polygon fill="#FFF" points="14.5 16.75 15.25 17.5 14.5 18.25 13.75 17.5"/>
  </g>
</svg>
