<svg xmlns="http://www.w3.org/2000/svg" width="24" height="24" viewBox="0 0 24 24">
  <g fill="none" fill-rule="evenodd" stroke="#FFF" stroke-linecap="round" stroke-linejoin="round">
    <path stroke-width="1.25" d="M7.75,13.5 L7,13.5 C5.06700338,13.5 3.5,11.9329966 3.5,10 C3.5,8.06700338 5.06700338,6.5 7,6.5 C7.55684217,6.5 8.08331222,6.63003851 8.55069905,6.86140443 C8.85644261,4.95580271 10.5082108,3.5 12.5,3.5 C14.709139,3.5 16.5,5.290861 16.5,7.5 C16.5,7.79098151 16.4689296,8.07470614 16.4099255,8.34803725 C16.8064232,8.12635358 17.2634559,8 17.75,8 C19.2687831,8 20.5,9.23121694 20.5,10.75 C20.5,12.2687831 19.2687831,13.5 17.75,13.5 L15,13.5"/>
    <polyline stroke-width="1.5" points="11.45 13.328 10 16.75 14 16.75 11.45 21"/>
  </g>
</svg>
