<svg xmlns="http://www.w3.org/2000/svg" width="24" height="24" viewBox="0 0 24 24">
  <g fill="none" fill-rule="evenodd" stroke="#FFF" stroke-linecap="round" stroke-linejoin="round" stroke-width="1.5">
    <path d="M7 14.25C5.20507456 14.25 3.75 12.7949254 3.75 11 3.75 9.20507456 5.20507456 7.75 7 7.75 7.55968831 7.75 8.08633297 7.89147669 8.54612271 8.14061881 8.83958977 6.22070188 10.4980445 4.75 12.5 4.75 14.709139 4.75 16.5 6.540861 16.5 8.75 16.5 9.05801859 16.4651847 9.35790563 16.3992747 9.64594065 16.7887981 9.39536368 17.2524233 9.25 17.75 9.25 19.1307119 9.25 20.25 10.3692881 20.25 11.75 20.25 13.1307119 19.1307119 14.25 17.75 14.25L7 14.25zM6.25 16.7471924L4.75 20.2530518M10.25 16.7471924L8.75 20.2530518M14.25 16.7471924L12.75 20.2530518M18.25 16.7471924L16.75 20.2530518"/>
  </g>
</svg>
