<?xml version="1.0" encoding="UTF-8"?>
<svg width="24px" height="24px" viewBox="0 0 24 24" version="1.1" xmlns="http://www.w3.org/2000/svg" xmlns:xlink="http://www.w3.org/1999/xlink">
    <!-- Generator: Sketch 48.2 (47327) - http://www.bohemiancoding.com/sketch -->
    <title>xxxhdpi/ic_precipitation</title>
    <desc>Created with Sketch.</desc>
    <defs></defs>
    <g id="Symbols" stroke="none" stroke-width="1" fill="none" fill-rule="evenodd">
        <g id="ic_precipitation" fill-rule="nonzero">
            <path d="M21.3651572,18.6567866 L10.7399731,15.8097771 C10.0316275,15.6199764 10.3163285,14.557458 11.0246741,14.7472587 L21.6498582,17.5942682 C22.3582038,17.7840688 22.0735028,18.8465872 21.3651572,18.6567866 Z" id="Path-9" fill="#67C8E2"></path>
            <path d="M11.3733592,16.3677569 C11.1365735,16.5580214 11.0988606,16.9042141 11.2891251,17.1409998 C11.4793897,17.3777855 11.8255823,17.4154984 12.0623681,17.2252339 L13.2701327,16.2547582 C13.4570713,16.1045473 13.5251353,15.8505293 13.4383471,15.6269735 L12.8776301,14.1826346 C12.7676999,13.8994678 12.4490318,13.7590318 12.165865,13.868962 C11.8826982,13.9788921 11.7422622,14.2975602 11.8521924,14.580727 L12.2671386,15.6495779 L11.3733592,16.3677569 Z" id="Path-20" fill="#67C8E2"></path>
            <path d="M21.0164721,17.0362884 C21.2532578,16.8460238 21.2909707,16.4998312 21.1007062,16.2630454 C20.9104416,16.0262597 20.564249,15.9885468 20.3274632,16.1788114 L19.1196986,17.1492871 C18.93276,17.299498 18.864696,17.5535159 18.9514842,17.7770717 L19.5122012,19.2214106 C19.6221314,19.5045774 19.9407995,19.6450135 20.2239663,19.5350833 C20.5071331,19.4251531 20.6475691,19.106485 20.5376389,18.8233182 L20.1226927,17.7544673 L21.0164721,17.0362884 Z" id="Path-20" fill="#67C8E2"></path>
            <path d="M17.0871612,22.1569651 L14.2401517,11.531781 C14.0503511,10.8234354 15.1128695,10.5387345 15.3026701,11.2470801 L18.1496796,21.8722642 C18.3394802,22.5806098 17.2769618,22.8653107 17.0871612,22.1569651 Z" id="Path-9" fill="#67C8E2"></path>
            <path d="M14.07362,12.3592994 C13.7904532,12.2493692 13.4717852,12.3898052 13.361855,12.672972 C13.2519248,12.9561388 13.3923608,13.2748069 13.6755276,13.384737 L15.1198665,13.945454 C15.3434223,14.0322422 15.5974403,13.9641783 15.7476512,13.7772396 L16.7181269,12.569475 C16.9083914,12.3326893 16.8706786,11.9864967 16.6338928,11.7962321 C16.3971071,11.6059676 16.0509145,11.6436804 15.8606499,11.8804662 L15.1424709,12.7742455 L14.07362,12.3592994 Z" id="Path-20" fill="#67C8E2"></path>
            <path d="M18.3162113,21.0447459 C18.5993781,21.1546761 18.9180461,21.01424 19.0279763,20.7310732 C19.1379065,20.4479064 18.9974705,20.1292384 18.7143037,20.0193082 L17.2699648,19.4585912 C17.046409,19.371803 16.792391,19.4398669 16.6421801,19.6268056 L15.6717044,20.8345702 C15.4814399,21.0713559 15.5191527,21.4175486 15.7559385,21.6078131 C15.9927242,21.7980777 16.3389168,21.7603648 16.5291814,21.5235791 L17.2473603,20.6297997 L18.3162113,21.0447459 Z" id="Path-20" fill="#67C8E2"></path>
            <path d="M20.4729117,13.2018441 L12.6947371,20.9800186 C12.1761921,21.4985636 11.3983746,20.7207462 11.9169196,20.2022012 L19.6950942,12.4240266 C20.2136392,11.9054816 20.9914566,12.6832991 20.4729117,13.2018441 Z" id="Path-9" fill="#67C8E2"></path>
            <path d="M13.4946548,20.7104801 C13.5410359,21.0106749 13.8219911,21.2164315 14.1221858,21.1700504 C14.4223805,21.1236694 14.6281371,20.8427142 14.5817561,20.5425194 L14.3451818,19.0113268 C14.3085647,18.7743277 14.1226106,18.5883736 13.8856115,18.5517565 L12.3544188,18.3151822 C12.0542241,18.2688011 11.7732689,18.4745577 11.7268878,18.7747525 C11.6805068,19.0749472 11.8862634,19.3559024 12.1864581,19.4022835 L13.3195833,19.577355 L13.4946548,20.7104801 Z" id="Path-20" fill="#67C8E2"></path>
            <path d="M18.8951765,12.6935651 C18.8487954,12.3933704 18.5678402,12.1876137 18.2676455,12.2339948 C17.9674508,12.2803759 17.7616941,12.5613311 17.8080752,12.8615258 L18.0446495,14.3927185 C18.0812666,14.6297176 18.2672207,14.8156716 18.5042198,14.8522888 L20.0354125,15.0888631 C20.3356072,15.1352441 20.6165624,14.9294875 20.6629435,14.6292928 C20.7093245,14.329098 20.5035679,14.0481428 20.2033732,14.0017618 L19.070248,13.8266902 L18.8951765,12.6935651 Z" id="Path-20" fill="#67C8E2"></path>
            <path d="M7,13.875 C4.61943289,13.875 2.70833333,11.8227397 2.70833333,9.3125 C2.70833333,8.50895013 3.0826578,7.5098642 3.74826805,6.32201874 C4.00948523,5.85585158 4.3118355,5.36901114 4.64736043,4.86799408 C5.05688512,4.25647811 5.49461764,3.65476321 5.93232711,3.08769281 C6.19539621,2.7468761 6.40091329,2.49222873 6.52040511,2.34923355 L7,1.77530513 L7.47959489,2.34923355 C7.59908671,2.49222873 7.80460379,2.7468761 8.06767289,3.08769281 C8.50538236,3.65476321 8.94311488,4.25647811 9.35263957,4.86799408 C9.6881645,5.36901114 9.99051477,5.85585158 10.251732,6.32201874 C10.9173422,7.5098642 11.2916667,8.50895013 11.2916667,9.3125 C11.2916667,11.8227397 9.38056711,13.875 7,13.875 Z" id="Oval-11" fill="#97B7E6"></path>
        </g>
    </g>
</svg>