<?xml version="1.0" encoding="UTF-8"?>
<svg width="24px" height="24px" viewBox="0 0 24 24" version="1.1" xmlns="http://www.w3.org/2000/svg" xmlns:xlink="http://www.w3.org/1999/xlink">
    <!-- Generator: Sketch 48.2 (47327) - http://www.bohemiancoding.com/sketch -->
    <title>xxxhdpi/ic_temp</title>
    <desc>Created with Sketch.</desc>
    <defs></defs>
    <g id="Symbols" stroke="none" stroke-width="1" fill="none" fill-rule="evenodd">
        <g id="ic_temp" fill="#FFFFFF">
            <path d="M10.75,13.5945131 C9.45607959,13.9275452 8.5,15.1021204 8.5,16.5 C8.5,18.1568542 9.84314575,19.5 11.5,19.5 C13.1568542,19.5 14.5,18.1568542 14.5,16.5 C14.5,15.1021204 13.5439204,13.9275452 12.25,13.5945131 L12.25,7.75 C12.25,7.33578644 11.9142136,7 11.5,7 C11.0857864,7 10.75,7.33578644 10.75,7.75 L10.75,13.5945131 Z M7.75,11.8159718 L7.75,5.75 C7.75,3.67893219 9.42893219,2 11.5,2 C13.5710678,2 15.25,3.67893219 15.25,5.75 L15.25,11.8159718 C16.6216937,12.9155626 17.5,14.6052116 17.5,16.5 C17.5,19.8137085 14.8137085,22.5 11.5,22.5 C8.1862915,22.5 5.5,19.8137085 5.5,16.5 C5.5,14.6052116 6.37830627,12.9155626 7.75,11.8159718 Z" id="Combined-Shape"></path>
        </g>
    </g>
</svg>